{
	"asset":{
		"generator":"Khronos glTF Blender I/O v4.5.48",
		"version":"2.0"
	},
	"extensionsUsed":[
		"KHR_materials_emissive_strength"
	],
	"scene":0,
	"scenes":[
		{
			"name":"Scene",
			"nodes":[
				2
			]
		}
	],
	"nodes":[
		{
			"mesh":0,
			"name":"Lamp",
			"scale":[
				0.9064440727233887,
				0.9064440727233887,
				0.9064440727233887
			],
			"translation":[
				0,
				0.10284910351037979,
				0
			]
		},
		{
			"mesh":1,
			"name":"Light.001",
			"scale":[
				0.9064440727233887,
				0.9064440727233887,
				0.9064440727233887
			],
			"translation":[
				0.3647328317165375,
				0.039024025201797485,
				-0.0004015064041595906
			]
		},
		{
			"children":[
				0,
				1
			],
			"name":"Lamp Light SN01",
			"scale":[
				1.1032119989395142,
				1.1032119989395142,
				1.1032119989395142
			]
		}
	],
	"materials":[
		{
			"doubleSided":true,
			"name":"LAMP ZIC.001"
		},
		{
			"doubleSided":true,
			"emissiveFactor":[
				1,
				0.2709951102733612,
				0
			],
			"extensions":{
				"KHR_materials_emissive_strength":{
					"emissiveStrength":3
				}
			},
			"name":"Lamp.001",
			"pbrMetallicRoughness":{
				"baseColorFactor":[
					0.4969230890274048,
					0.4969230890274048,
					0.4969230890274048,
					1
				],
				"metallicFactor":0
			}
		}
	],
	"meshes":[
		{
			"name":"Cylinder.001",
			"primitives":[
				{
					"attributes":{
						"POSITION":0,
						"NORMAL":1,
						"TEXCOORD_0":2,
						"TEXCOORD_1":3
					},
					"indices":4,
					"material":0
				}
			]
		},
		{
			"name":"Torus.002",
			"primitives":[
				{
					"attributes":{
						"POSITION":5,
						"NORMAL":6,
						"TEXCOORD_0":7,
						"TEXCOORD_1":8
					},
					"indices":9,
					"material":1
				}
			]
		}
	],
	"accessors":[
		{
			"bufferView":0,
			"componentType":5126,
			"count":61601,
			"max":[
				0.12346910685300827,
				0.058172836899757385,
				0.12299133092164993
			],
			"min":[
				-0.12290498614311218,
				-0.11351697891950607,
				-0.12329492717981339
			],
			"type":"VEC3"
		},
		{
			"bufferView":1,
			"componentType":5126,
			"count":61601,
			"type":"VEC3"
		},
		{
			"bufferView":2,
			"componentType":5126,
			"count":61601,
			"type":"VEC2"
		},
		{
			"bufferView":3,
			"componentType":5126,
			"count":61601,
			"type":"VEC2"
		},
		{
			"bufferView":4,
			"componentType":5123,
			"count":344064,
			"type":"SCALAR"
		},
		{
			"bufferView":5,
			"componentType":5126,
			"count":867,
			"max":[
				-0.31772705912590027,
				0.10147929936647415,
				0.08351999521255493
			],
			"min":[
				-0.48476704955101013,
				0.06807129830121994,
				-0.08351999521255493
			],
			"type":"VEC3"
		},
		{
			"bufferView":6,
			"componentType":5126,
			"count":867,
			"type":"VEC3"
		},
		{
			"bufferView":7,
			"componentType":5126,
			"count":867,
			"type":"VEC2"
		},
		{
			"bufferView":8,
			"componentType":5126,
			"count":867,
			"type":"VEC2"
		},
		{
			"bufferView":9,
			"componentType":5123,
			"count":3456,
			"type":"SCALAR"
		}
	],
	"bufferViews":[
		{
			"buffer":0,
			"byteLength":739212,
			"byteOffset":0,
			"target":34962
		},
		{
			"buffer":0,
			"byteLength":739212,
			"byteOffset":739212,
			"target":34962
		},
		{
			"buffer":0,
			"byteLength":492808,
			"byteOffset":1478424,
			"target":34962
		},
		{
			"buffer":0,
			"byteLength":492808,
			"byteOffset":1971232,
			"target":34962
		},
		{
			"buffer":0,
			"byteLength":688128,
			"byteOffset":2464040,
			"target":34963
		},
		{
			"buffer":0,
			"byteLength":10404,
			"byteOffset":3152168,
			"target":34962
		},
		{
			"buffer":0,
			"byteLength":10404,
			"byteOffset":3162572,
			"target":34962
		},
		{
			"buffer":0,
			"byteLength":6936,
			"byteOffset":3172976,
			"target":34962
		},
		{
			"buffer":0,
			"byteLength":6936,
			"byteOffset":3179912,
			"target":34962
		},
		{
			"buffer":0,
			"byteLength":6912,
			"byteOffset":3186848,
			"target":34963
		}
	],
	"buffers":[
		{
			"byteLength":3193760,
			"uri":"lamparaCortita.bin"
		}
	]
}
