{
	"asset":{
		"generator":"Khronos glTF Blender I/O v4.5.48",
		"version":"2.0"
	},
	"extensionsUsed":[
		"KHR_materials_emissive_strength",
		"KHR_materials_specular",
		"KHR_materials_ior"
	],
	"scene":0,
	"scenes":[
		{
			"name":"Scene",
			"nodes":[
				6
			]
		}
	],
	"nodes":[
		{
			"mesh":0,
			"name":"Circle.001"
		},
		{
			"mesh":1,
			"name":"Circle.002"
		},
		{
			"mesh":2,
			"name":"NurbsPath.001",
			"rotation":[
				0.3657551109790802,
				-0.3404218256473541,
				-0.5898066163063049,
				0.6344007849693298
			]
		},
		{
			"mesh":3,
			"name":"NurbsPath.003",
			"rotation":[
				0.3657551109790802,
				-0.3404218256473541,
				-0.5898066163063049,
				0.6344007849693298
			],
			"translation":[
				0,
				1.0079962015151978,
				0
			]
		},
		{
			"mesh":4,
			"name":"NurbsPath.004",
			"rotation":[
				0.3657551109790802,
				-0.3404218256473541,
				-0.5898066163063049,
				0.6344007849693298
			],
			"translation":[
				0,
				1.0951614379882812,
				0
			]
		},
		{
			"mesh":5,
			"name":"NurbsPath.005",
			"rotation":[
				0.3657551109790802,
				-0.3404218256473541,
				-0.5898066163063049,
				0.6344007849693298
			]
		},
		{
			"children":[
				0,
				1,
				2,
				3,
				4,
				5
			],
			"name":"Round Floor Lamp"
		}
	],
	"materials":[
		{
			"doubleSided":true,
			"name":"Material.003"
		},
		{
			"doubleSided":true,
			"extensions":{
				"KHR_materials_specular":{
					"specularFactor":0.5454545021057129
				},
				"KHR_materials_ior":{
					"ior":1.4500000476837158
				}
			},
			"name":"Black Plastic",
			"pbrMetallicRoughness":{
				"baseColorFactor":[
					0.3006516098976135,
					0.28279930353164673,
					0.30893874168395996,
					1
				],
				"metallicFactor":0.5079365372657776
			}
		},
		{
			"doubleSided":true,
			"emissiveFactor":[
				1,
				1,
				1
			],
			"extensions":{
				"KHR_materials_emissive_strength":{
					"emissiveStrength":5
				}
			},
			"name":"Material.007",
			"pbrMetallicRoughness":{
				"baseColorFactor":[
					0,
					0,
					0,
					1
				]
			}
		}
	],
	"meshes":[
		{
			"name":"Circle.001",
			"primitives":[
				{
					"attributes":{
						"POSITION":0,
						"NORMAL":1,
						"TEXCOORD_0":2,
						"TEXCOORD_1":3
					},
					"indices":4,
					"material":0
				}
			]
		},
		{
			"name":"Circle.002",
			"primitives":[
				{
					"attributes":{
						"POSITION":5,
						"NORMAL":6,
						"TEXCOORD_0":7,
						"TEXCOORD_1":8
					},
					"indices":4,
					"material":0
				}
			]
		},
		{
			"name":"NurbsPath.001",
			"primitives":[
				{
					"attributes":{
						"POSITION":9,
						"NORMAL":10,
						"TEXCOORD_0":11
					},
					"indices":12,
					"material":1
				}
			]
		},
		{
			"name":"NurbsPath.002",
			"primitives":[
				{
					"attributes":{
						"POSITION":13,
						"NORMAL":14,
						"TEXCOORD_0":15
					},
					"indices":16,
					"material":1
				}
			]
		},
		{
			"name":"NurbsPath.004",
			"primitives":[
				{
					"attributes":{
						"POSITION":17,
						"NORMAL":18,
						"TEXCOORD_0":19
					},
					"indices":20,
					"material":2
				}
			]
		},
		{
			"name":"NurbsPath.006",
			"primitives":[
				{
					"attributes":{
						"POSITION":21,
						"NORMAL":22,
						"TEXCOORD_0":23
					},
					"indices":24,
					"material":1
				}
			]
		}
	],
	"accessors":[
		{
			"bufferView":0,
			"componentType":5126,
			"count":224,
			"max":[
				0.09000001102685928,
				0.011673472821712494,
				0.09000001102685928
			],
			"min":[
				-0.09000001102685928,
				0,
				-0.09000001102685928
			],
			"type":"VEC3"
		},
		{
			"bufferView":1,
			"componentType":5126,
			"count":224,
			"type":"VEC3"
		},
		{
			"bufferView":2,
			"componentType":5126,
			"count":224,
			"type":"VEC2"
		},
		{
			"bufferView":3,
			"componentType":5126,
			"count":224,
			"type":"VEC2"
		},
		{
			"bufferView":4,
			"componentType":5123,
			"count":1332,
			"type":"SCALAR"
		},
		{
			"bufferView":5,
			"componentType":5126,
			"count":224,
			"max":[
				0.09000000357627869,
				0.01167347189038992,
				0.09000000357627869
			],
			"min":[
				-0.09000000357627869,
				0,
				-0.09000000357627869
			],
			"type":"VEC3"
		},
		{
			"bufferView":6,
			"componentType":5126,
			"count":224,
			"type":"VEC3"
		},
		{
			"bufferView":7,
			"componentType":5126,
			"count":224,
			"type":"VEC2"
		},
		{
			"bufferView":8,
			"componentType":5126,
			"count":224,
			"type":"VEC2"
		},
		{
			"bufferView":9,
			"componentType":5126,
			"count":384,
			"max":[
				0.000702373799867928,
				0.04697611927986145,
				0.00792438630014658
			],
			"min":[
				-1.054147481918335,
				-0.007946652360260487,
				-0.07420506328344345
			],
			"type":"VEC3"
		},
		{
			"bufferView":10,
			"componentType":5126,
			"count":384,
			"type":"VEC3"
		},
		{
			"bufferView":11,
			"componentType":5126,
			"count":384,
			"type":"VEC2"
		},
		{
			"bufferView":12,
			"componentType":5123,
			"count":1836,
			"type":"SCALAR"
		},
		{
			"bufferView":13,
			"componentType":5126,
			"count":12,
			"max":[
				0.009411098435521126,
				0.03850405663251877,
				0.038610395044088364
			],
			"min":[
				-0.007839775644242764,
				-0.038561929017305374,
				-0.03851188346743584
			],
			"type":"VEC3"
		},
		{
			"bufferView":14,
			"componentType":5126,
			"count":12,
			"type":"VEC3"
		},
		{
			"bufferView":15,
			"componentType":5126,
			"count":12,
			"type":"VEC2"
		},
		{
			"bufferView":16,
			"componentType":5123,
			"count":60,
			"type":"SCALAR"
		},
		{
			"bufferView":17,
			"componentType":5126,
			"count":559,
			"max":[
				0.09021862596273422,
				0.09092430770397186,
				0.09081847965717316
			],
			"min":[
				-0.0902186781167984,
				-0.09092426300048828,
				-0.09081846475601196
			],
			"type":"VEC3"
		},
		{
			"bufferView":18,
			"componentType":5126,
			"count":559,
			"type":"VEC3"
		},
		{
			"bufferView":19,
			"componentType":5126,
			"count":559,
			"type":"VEC2"
		},
		{
			"bufferView":20,
			"componentType":5123,
			"count":2880,
			"type":"SCALAR"
		},
		{
			"bufferView":21,
			"componentType":5126,
			"count":128,
			"max":[
				0.003570722648873925,
				0.07445605844259262,
				0.07360827177762985
			],
			"min":[
				-0.018442701548337936,
				-0.073724664747715,
				-0.07485336810350418
			],
			"type":"VEC3"
		},
		{
			"bufferView":22,
			"componentType":5126,
			"count":128,
			"type":"VEC3"
		},
		{
			"bufferView":23,
			"componentType":5126,
			"count":128,
			"type":"VEC2"
		},
		{
			"bufferView":24,
			"componentType":5123,
			"count":756,
			"type":"SCALAR"
		}
	],
	"bufferViews":[
		{
			"buffer":0,
			"byteLength":2688,
			"byteOffset":0,
			"target":34962
		},
		{
			"buffer":0,
			"byteLength":2688,
			"byteOffset":2688,
			"target":34962
		},
		{
			"buffer":0,
			"byteLength":1792,
			"byteOffset":5376,
			"target":34962
		},
		{
			"buffer":0,
			"byteLength":1792,
			"byteOffset":7168,
			"target":34962
		},
		{
			"buffer":0,
			"byteLength":2664,
			"byteOffset":8960,
			"target":34963
		},
		{
			"buffer":0,
			"byteLength":2688,
			"byteOffset":11624,
			"target":34962
		},
		{
			"buffer":0,
			"byteLength":2688,
			"byteOffset":14312,
			"target":34962
		},
		{
			"buffer":0,
			"byteLength":1792,
			"byteOffset":17000,
			"target":34962
		},
		{
			"buffer":0,
			"byteLength":1792,
			"byteOffset":18792,
			"target":34962
		},
		{
			"buffer":0,
			"byteLength":4608,
			"byteOffset":20584,
			"target":34962
		},
		{
			"buffer":0,
			"byteLength":4608,
			"byteOffset":25192,
			"target":34962
		},
		{
			"buffer":0,
			"byteLength":3072,
			"byteOffset":29800,
			"target":34962
		},
		{
			"buffer":0,
			"byteLength":3672,
			"byteOffset":32872,
			"target":34963
		},
		{
			"buffer":0,
			"byteLength":144,
			"byteOffset":36544,
			"target":34962
		},
		{
			"buffer":0,
			"byteLength":144,
			"byteOffset":36688,
			"target":34962
		},
		{
			"buffer":0,
			"byteLength":96,
			"byteOffset":36832,
			"target":34962
		},
		{
			"buffer":0,
			"byteLength":120,
			"byteOffset":36928,
			"target":34963
		},
		{
			"buffer":0,
			"byteLength":6708,
			"byteOffset":37048,
			"target":34962
		},
		{
			"buffer":0,
			"byteLength":6708,
			"byteOffset":43756,
			"target":34962
		},
		{
			"buffer":0,
			"byteLength":4472,
			"byteOffset":50464,
			"target":34962
		},
		{
			"buffer":0,
			"byteLength":5760,
			"byteOffset":54936,
			"target":34963
		},
		{
			"buffer":0,
			"byteLength":1536,
			"byteOffset":60696,
			"target":34962
		},
		{
			"buffer":0,
			"byteLength":1536,
			"byteOffset":62232,
			"target":34962
		},
		{
			"buffer":0,
			"byteLength":1024,
			"byteOffset":63768,
			"target":34962
		},
		{
			"buffer":0,
			"byteLength":1512,
			"byteOffset":64792,
			"target":34963
		}
	],
	"buffers":[
		{
			"byteLength":66304,
			"uri":"lamparaDePie.bin"
		}
	]
}
